<?xml version="1.0" encoding="utf-8"?>
<!-- Svg Vector Icons : http://www.onlinewebfonts.com/icon -->
<!DOCTYPE svg PUBLIC "-//W3C//DTD SVG 1.1//EN" "http://www.w3.org/Graphics/SVG/1.1/DTD/svg11.dtd">
<svg version="1.1" xmlns="http://www.w3.org/2000/svg" xmlns:xlink="http://www.w3.org/1999/xlink" x="0px" y="0px" viewBox="0 0 1000 1000" enable-background="new 0 0 1000 1000" xml:space="preserve">
<metadata> Svg Vector Icons : http://www.onlinewebfonts.com/icon </metadata>
<g><path d="M500,10C244.6,10,37.5,216,37.5,470.1c0,94.3,28.6,182,77.5,255c0,73.3-8,146.1-10.2,219.2c-0.3,11.4-0.1,22.2,2.1,33.5c1.6,8.1,11.6,13,17.4,12.2c9.8-1.3,20.9-4.4,20.8-4.4h0c71.5-23.9,146.3-49.5,216.1-76.5c43.8,13.7,90.4,21.1,138.7,21.1c255.4,0,462.5-206,462.5-460.1S755.4,10,500,10z M500,881.6c-41.2,0-81-6.1-118.5-17.3l-0.1,0.2c0,0-1.3-0.5-3.5-1.3c-0.7-0.2-1.3-0.4-2-0.6c-6-1.8-15.6-4-21.6-1.7c-66.8,26.7-134.9,49.7-203.2,71.9c0,0,0,0,0,0v0l0,0c3.9-69.7,7.1-139.6,12.4-209.2c0.4-4.6,0.1-14.3-5.8-24.8c-1.3-1.9-2.6-3.9-3.9-5.9l-0.1-0.1l0,0c-41.4-64.2-65.4-140.6-65.4-222.6C88.5,242.8,272.8,58.6,500,58.6c227.2,0,411.5,184.3,411.5,411.5C911.5,697.3,727.2,881.6,500,881.6z"/><path d="M484.3,656.8c-32.9,0-59.7,26.7-59.7,59.7s26.7,59.7,59.7,59.7c32.9,0,59.7-26.7,59.7-59.7C544,683.5,517.3,656.8,484.3,656.8z M484.3,740.7c-13.4,0-24.2-10.8-24.2-24.2c0-13.4,10.8-24.2,24.2-24.2c13.4,0,24.2,10.8,24.2,24.2C508.5,729.8,497.7,740.7,484.3,740.7z"/><path d="M642,276.9c-20.3-51.6-68.2-68.4-101.4-73.7c-103.3-16.6-195.3,28.4-192.4,144.7c0.8,31.9,26.9,57.5,59,57.5c30,0,54.7-22.3,58.5-51.3c0.1-0.9,0.2-1.8,0.3-2.6c0.8-8,1.9-21.4,7.2-27.3c10-11.1,37.7-11.5,50-7.1c11.1,4,15.8,13.3,17.8,21.2c1.8,17.8-1.7,31.8-10.9,47.8c-13.4,22.1-25.4,31.3-44.6,43.9c-23.1,15.1-34.6,23.3-47,37.4c-9.9,10.6-12.1,23.2-12,38.8c0,0.1,0,0.4,0,0.6l0,0v0.4h0c0,0.2,0,0.3,0,0.4c0.3,22.7,0.7,62,0.9,74c0,2.4,0.1,4,0.8,6.3c7.2,23.6,29.1,40.8,55.1,40.8c26.3,0,48.4-17.6,55.3-41.6c0.6-2.2,0.7-4.3,0.8-6.6l2.9-59.4c74.3-54.9,96.9-103.8,96.9-103.8c3.2-6.4,5.8-12.6,8.1-19.3C660.8,358.4,657,315.1,642,276.9z M600.8,408.9c-25.1,35.9-53.3,58.2-84.4,86.2c-8.8,7.6-10.2,14.4-10.7,25.8l-1.5,50.1c0,0.1,0,0.2,0,0.2c0,11.5-9.3,20.8-20.8,20.8s-20.8-9.3-20.8-20.8c0-0.1,0-0.2,0-0.2l0.2-62.4c0,0,0-2.5,0-3c0.4-7.9,3.2-13.7,8.6-19.1c30.4-30.4,79-47.8,97.6-90.7c10-23.1,13.6-51.6,5-75.8c-7.9-21.9-24.9-35.9-48-39.1c-17.8-2.5-34.3-3.1-52.5,1c-2.2,0.5-4.3,0.9-6.5,1.6c-16.4,5-27.1,18.4-33,33.9c-4,10.3-5.5,21-5.9,32v0v0v0v0v0c0,8.8-5.4,16.3-13.1,19.4c-2.4,0.9-5,1.5-7.7,1.5c-2.7,0-5.3-0.5-7.7-1.5c-7.7-3.1-13.1-10.6-13.1-19.4c0-0.1,0-0.2,0-0.2c0.2-25.6,2.1-47.4,15.8-70.3c19.5-32.7,66.9-43.5,102.2-41.2c23.8,1.5,47.6,5.7,68.4,18.3c23.1,14,38,42.2,42.8,67.8C619.5,352.3,617.3,385.2,600.8,408.9z"/></g>
</svg>