<?xml version="1.0" encoding="iso-8859-1"?>
<!-- Generator: Adobe Illustrator 18.0.0, SVG Export Plug-In . SVG Version: 6.00 Build 0)  -->
<!DOCTYPE svg PUBLIC "-//W3C//DTD SVG 1.1//EN" "http://www.w3.org/Graphics/SVG/1.1/DTD/svg11.dtd">
<svg version="1.1" id="Capa_1" xmlns="http://www.w3.org/2000/svg" xmlns:xlink="http://www.w3.org/1999/xlink" x="0px" y="0px"
	 viewBox="0 0 297 297" style="enable-background:new 0 0 297 297;" xml:space="preserve">
<g>
	<path d="M292.973,123.141l-44.298-33.228V63.958c0-5.56-4.577-10.067-10.223-10.067h-37.804l-46.107-34.585
		c-3.579-2.684-8.503-2.684-12.082,0L96.352,53.89H58.548c-5.646,0-10.223,4.508-10.223,10.067v25.956L4.027,123.141
		C1.491,125.043,0,128.027,0,131.196v138.443c0,5.561,4.508,10.068,10.067,10.068h276.865c5.56,0,10.067-4.508,10.067-10.068
		V131.196C297,128.027,295.509,125.043,292.973,123.141z M20.136,147.486l63.94,31.972l-63.94,64.381V147.486z M102.975,188.909
		l41.022,20.512c1.418,0.709,2.96,1.063,4.503,1.063s3.085-0.354,4.503-1.063l41.023-20.512l70.182,70.663H32.793L102.975,188.909z
		 M212.924,179.458l63.941-31.972v96.353L212.924,179.458z M267.86,129.475l-19.186,9.594v-23.984L267.86,129.475z M148.5,39.945
		l18.591,13.945h-37.182L148.5,39.945z M228.231,74.025v75.266L148.5,189.159L68.769,149.29V74.025H228.231z M48.325,139.069
		l-19.186-9.594l19.186-14.391V139.069z"/>
	<path d="M113.894,123.955h69.216c5.559,0,10.067-4.508,10.067-10.068c0-5.56-4.508-10.067-10.067-10.067h-69.216
		c-5.56,0-10.067,4.508-10.067,10.067C103.826,119.447,108.334,123.955,113.894,123.955z"/>
	<path d="M113.894,158.567h69.216c5.559,0,10.067-4.508,10.067-10.067s-4.508-10.067-10.067-10.067h-69.216
		c-5.56,0-10.067,4.508-10.067,10.067S108.334,158.567,113.894,158.567z"/>
</g>
<g>
</g>
<g>
</g>
<g>
</g>
<g>
</g>
<g>
</g>
<g>
</g>
<g>
</g>
<g>
</g>
<g>
</g>
<g>
</g>
<g>
</g>
<g>
</g>
<g>
</g>
<g>
</g>
<g>
</g>
</svg>
