<?xml version="1.0" encoding="utf-8"?>
<!-- Svg Vector Icons : http://www.onlinewebfonts.com/icon -->
<!DOCTYPE svg PUBLIC "-//W3C//DTD SVG 1.1//EN" "http://www.w3.org/Graphics/SVG/1.1/DTD/svg11.dtd">
<svg version="1.1" xmlns="http://www.w3.org/2000/svg" xmlns:xlink="http://www.w3.org/1999/xlink" x="0px" y="0px" viewBox="0 0 1000 1000" enable-background="new 0 0 1000 1000" xml:space="preserve">
<metadata> Svg Vector Icons : http://www.onlinewebfonts.com/icon </metadata>
<g><path d="M963.6,818.6c-6.9-34.9-71.1-53.1-134.6-53.1c-0.9,0-1.8,0-2.7,0v-28.3v-52.8v-52.8c0-39-68-59.4-135.2-59.4c-67.2,0-135.2,20.4-135.2,59.4v52.8v52.8V790v52.8c0,39,68,59.4,135.2,59.4c0.9,0,1.8,0,2.7,0v28.3c0,39,68,59.5,135.2,59.5c67.2,0,135.2-20.4,135.2-59.5v-52.8V825v-6.3H963.6z M588.3,671.5c10.9,5.4,24,9.7,38.4,12.9c12.8,2.8,26.7,4.8,40.8,5.8c7.8,0.6,15.7,0.9,23.6,0.9c7.9,0,15.8-0.3,23.6-0.9c14.2-1,28-3,40.8-5.8c14.3-3.2,27.5-7.5,38.4-12.9c6,4.4,9.3,8.9,9.3,12.9c0,4-3.3,8.5-9.3,12.9c-3.3,2.5-7.5,4.9-12.6,7.2c-4.8,2.2-10.3,4.3-16.5,6.3c-18.8,5.8-44,9.9-73.8,9.9c-29.8,0-54.9-4.1-73.8-9.9c-6.2-1.9-11.7-4.1-16.4-6.3c-5-2.3-9.2-4.8-12.6-7.2c-6-4.4-9.2-8.9-9.2-12.9C579.1,680.4,582.3,676,588.3,671.5z M588.3,724.3c10.9,5.4,24,9.7,38.4,12.9c12.8,2.8,26.6,4.8,40.8,5.8c7.8,0.6,15.8,0.9,23.7,0.9c7.9,0,15.9-0.3,23.7-0.9c14.1-1,27.9-3,40.8-5.8c14.3-3.2,27.4-7.5,38.4-12.9c6,4.4,9.3,8.9,9.3,12.9c0,4-3.3,8.5-9.2,12.9c-3.3,2.5-7.6,4.9-12.6,7.2c-4.8,2.2-10.3,4.3-16.5,6.3c-18.8,5.8-44,9.9-73.8,9.9c-29.8,0-55-4.1-73.8-9.9c-6.2-1.9-11.6-4-16.4-6.3c-5-2.3-9.3-4.8-12.6-7.2c-6-4.4-9.2-8.9-9.2-12.9C579.1,733.2,582.3,728.8,588.3,724.3z M693.8,877.7v1.3c-0.9,0-1.8,0.1-2.7,0.1c-68.4,0-112.1-21.5-112.1-36.3c0-4,3.3-8.5,9.2-12.9c26.1,12.9,64.6,19.5,102.8,19.5c0.9,0,1.8,0,2.7,0V877.7z M699.5,806.6c-3.6,5.5-5.6,11.6-5.6,18.3v0v1.3c-0.9,0-1.8,0.1-2.7,0.1c-29.8,0-54.9-4.1-73.8-9.9c-6.2-1.9-11.6-4-16.4-6.3c-5-2.3-9.2-4.8-12.6-7.2c-6-4.4-9.2-8.9-9.2-12.9c0-4,3.3-8.5,9.2-12.9c10.9,5.4,24,9.7,38.4,12.9c12.8,2.8,26.6,4.8,40.8,5.8c7.8,0.6,15.8,0.9,23.7,0.9c5.9,0,11.8-0.2,17.7-0.5C705,799.4,701.9,802.9,699.5,806.6z M829,966.9c-68.4,0-112.1-21.5-112.1-36.3c0-4,3.3-8.5,9.2-12.9c26.1,12.9,64.6,19.5,102.8,19.5c38.3,0,76.8-6.6,102.8-19.5c6,4.4,9.2,8.9,9.2,12.9C941.1,945.4,897.4,966.9,829,966.9z M931.9,890.6c-3.4,2.5-7.6,4.9-12.6,7.2c-4.8,2.2-10.3,4.3-16.5,6.3c-18.8,5.8-44,9.9-73.8,9.9c-29.8,0-54.9-4.1-73.8-9.9c-5.6-1.7-10.7-3.6-15.1-5.6c-0.5-0.2-0.9-0.4-1.3-0.6c-5-2.3-9.2-4.8-12.6-7.2c-0.8-0.6-1.5-1.1-2.2-1.7c-4.4-3.7-6.9-7.5-7-10.9c0-0.1,0-0.2,0-0.3c0-4,3.3-8.5,9.2-12.9c6.6,3.3,14.1,6.2,22.1,8.6c5.2,1.6,10.6,3,16.3,4.3c2.3,0.5,4.5,1,6.9,1.4c7.4,1.4,15,2.5,22.8,3.4c3.6,0.4,7.3,0.7,11,1c7.9,0.6,15.8,0.9,23.7,0.9c7.9,0,15.9-0.3,23.7-0.9c14.1-1,27.9-3,40.8-5.8c14.3-3.2,27.4-7.5,38.4-12.9c6,4.4,9.2,8.9,9.2,12.9C941.1,881.7,937.8,886.2,931.9,890.6z"/><path d="M320.4,333.6h408.1L667.4,84C654.6,31.9,602,0,549.9,12.8L109.8,120.5c-52,12.7-84,65.3-71.2,117.4l61.6,251.5c7.8,31.6,30.3,55.7,58.4,66.9v-60.9C158.6,406.2,231.2,333.6,320.4,333.6z M608.4,150l26.8,109.6l-109.6,26.8l-26.8-109.6L608.4,150z"/><path d="M849.4,506.1v-32.4c0-53.6-43.5-97.1-97.1-97.1H299.2c-53.6,0-97.1,43.5-97.1,97.1v32.4v97.1v129.5c0,53.6,43.5,97.1,97.1,97.1h223.2V778H299.2c-25,0-45.3-20.4-45.3-45.3V603.2h268.6v-58h327V506.1z M797.6,506.1H253.8v-32.4c0-25,20.4-45.3,45.3-45.3h453.2c25,0,45.3,20.4,45.3,45.3L797.6,506.1z"/></g>
</svg>