<?xml version="1.0" encoding="utf-8"?>
<!-- Svg Vector Icons : http://www.onlinewebfonts.com/icon -->
<!DOCTYPE svg PUBLIC "-//W3C//DTD SVG 1.1//EN" "http://www.w3.org/Graphics/SVG/1.1/DTD/svg11.dtd">
<svg version="1.1" xmlns="http://www.w3.org/2000/svg" xmlns:xlink="http://www.w3.org/1999/xlink" x="0px" y="0px" viewBox="0 0 1000 1000" enable-background="new 0 0 1000 1000" xml:space="preserve">
<metadata> Svg Vector Icons : http://www.onlinewebfonts.com/icon </metadata>
<g><path d="M10,500C10,229.3,229.4,9.8,500,9.8l0,0c270.6,0,490,219.5,490,490.2l0,0c0,270.8-219.4,490.2-490,490.2l0,0C229.4,990.2,10,770.8,10,500L10,500z M169.3,169.1c-84.7,84.7-137,201.6-137,330.9l0,0c0,129.3,52.3,246.2,137,330.9l0,0C253.9,915.6,370.8,968,500,968l0,0c129.2,0,246-52.4,330.7-137.1l0,0c84.7-84.7,137-201.6,137-330.9l0,0c0-129.3-52.3-246.2-137-330.9l0,0C746,84.4,629.2,32,500,32l0,0C370.8,32,253.9,84.4,169.3,169.1L169.3,169.1z"/><path d="M472.2,203.9c0,0,37.2,68.7-74.5,243.5c0,0-45.8,77.3-40.1,160.4c0,0,0,134.6,148.9,146.1c0,0,154.7,5.7,169-154.7C675.6,599.2,698.5,476,472.2,203.9z M470.3,682.2l36.3-66.8l-91.7,5.7l74.5-141.3h95.5l-64.9,89.7l74.5-9.5L470.3,682.2z"/></g>
</svg>